# xmcd
#
# Track frame offsets:
#	150
#	13875
#	28893
#	39055
#	56173
#	70723
#	85404
#	100629
#	115497
#	130422
#	139759
#	156052
#	167377
#	181270
#	190626
#	201913
#	226625
#	238325
#
# Disc length: 3476 seconds
#
# Revision: 0
# Processed by: cddbd v1.5.2PL0 Copyright (c) Steve Scherf et al.
# Submitted via: audiograbber 1.83.01
#
DISCID=ec0d9212
DTITLE=Willie Dixon - Golden Blues Box CD5 - Willie Dixon - After Hours
DYEAR=2014
DGENRE=Blues
TTITLE0=Walking The Blues
TTITLE1=Move Me
TTITLE2=That´s  All I Want, Baby
TTITLE3=After Hours
TTITLE4=Youth To You
TTITLE5=Nervous
TTITLE6=That´s My Baby
TTITLE7=4 O´Clock Boogie
TTITLE8=C Rocker
TTITLE9=Don´t  You Tell Nobody
TTITLE10=Shaky
TTITLE11=Build For Comfort
TTITLE12=Shame Pretty Girls
TTITLE13=Baby, Please Come Home
TTITLE14=Do De Do
TTITLE15=Cool Blooded
TTITLE16=Just You And I
TTITLE17=Home To Mamma
EXTD=
EXTT0=
EXTT1=
EXTT2=
EXTT3=
EXTT4=
EXTT5=
EXTT6=
EXTT7=
EXTT8=
EXTT9=
EXTT10=
EXTT11=
EXTT12=
EXTT13=
EXTT14=
EXTT15=
EXTT16=
EXTT17=
PLAYORDER=
